<svg version="1.1" xmlns="http://www.w3.org/2000/svg" viewBox="0 0 400 300">

    <path
        fill="#F2F6F8"
        d="M135.47,28.08c-1.09,0-2.12-0.33-2.99-0.91c-0.38-0.25-0.73-0.55-1.04-0.9c-0.56-0.61-0.97-1.35-1.2-2.18
        l-5.41-19.61c-0.43-1.56-1.87-2.66-3.49-2.66H5.43c-1.99,0-3.62,1.63-3.62,3.63v55.22h396.38V28.08H135.47z M343.39,54.99H99.62
        c-5.18,0-9.39-4.21-9.39-9.39c0-5.17,4.21-9.38,9.39-9.38h243.77c5.17,0,9.38,4.21,9.38,9.38
        C352.77,50.78,348.56,54.99,343.39,54.99z"
    />

    <path
        fill="#E0EAEE"
        d="M400,62.48v232.09c0,2.99-2.44,5.43-5.43,5.43H5.43C2.44,300,0,297.56,0,294.57V62.48H400z"
    />

    <path
        fill="#E0EAEE"
        d="M398.19,5.45v20.82H282.65c-1.63,0-3.06-1.09-3.49-2.66L273.75,4c-0.23-0.83-0.65-1.57-1.2-2.18h122.02
        C396.56,1.82,398.19,3.45,398.19,5.45z"
    />

    <path
        fill="#2C4751"
        d="M385.436,14.046l3.887-3.887c0.354-0.354,0.354-0.927,0-1.28c-0.354-0.354-0.927-0.354-1.28,0l-3.887,3.887
        L380.27,8.88c-0.354-0.354-0.927-0.354-1.28,0c-0.354,0.354-0.354,0.927,0,1.28l3.887,3.887l-3.887,3.887
        c-0.354,0.354-0.354,0.927,0,1.28c0.177,0.177,0.409,0.265,0.64,0.265c0.232,0,0.463-0.088,0.64-0.265l3.887-3.887l3.887,3.887
        c0.177,0.177,0.409,0.265,0.64,0.265c0.232,0,0.463-0.088,0.64-0.265c0.354-0.354,0.354-0.927,0-1.28L385.436,14.046z"
    />

    <path
        fill="#9AD0C4"
        d="M393.66,100.05v114.08c0,1.99-1.62,3.62-3.62,3.62s-3.62-1.63-3.62-3.62V100.05c0-1.99,1.62-3.62,3.62-3.62
        S393.66,98.06,393.66,100.05z"
    />


    <path
        fill="#2C4751"
        d="M390.041,293.564
        c-0.256,0-0.5-0.109-0.672-0.299l-3.972-4.403c-0.335-0.371-0.305-0.944,0.066-1.278c0.373-0.335,0.945-0.305,1.279,0.065
        l3.3,3.658l3.299-3.658c0.335-0.371,0.907-0.401,1.279-0.065c0.371,0.334,0.401,0.907,0.066,1.278l-3.972,4.403
        C390.541,293.455,390.297,293.564,390.041,293.564z"
    />


    <path
        fill="#2C4751"
        d="M394.013,73.364
        c-0.248,0-0.494-0.101-0.673-0.299l-3.299-3.658l-3.3,3.658c-0.335,0.37-0.907,0.401-1.279,0.065
        c-0.371-0.334-0.401-0.907-0.066-1.278l3.972-4.404c0.344-0.38,1.001-0.38,1.345,0l3.972,4.404
        c0.335,0.371,0.305,0.944-0.066,1.278C394.446,73.287,394.229,73.364,394.013,73.364z"
    />

    <path
        fill="#2C4751"
        d="M351.564,19.478
        c-2.995,0-5.432-2.437-5.432-5.432c0-2.995,2.437-5.432,5.432-5.432c2.995,0,5.432,2.437,5.432,5.432
        C356.996,17.042,354.559,19.478,351.564,19.478z M351.564,10.425c-1.997,0-3.621,1.624-3.621,3.621c0,1.997,1.625,3.621,3.621,3.621
        c1.997,0,3.621-1.624,3.621-3.621C355.185,12.049,353.561,10.425,351.564,10.425z"
    />

    <path
        fill="#2C4751"
        d="M372.358,19.478h-9.053
        c-0.5,0-0.905-0.405-0.905-0.905c0-0.5,0.405-0.905,0.905-0.905h9.053c0.5,0,0.905,0.405,0.905,0.905
        C373.263,19.074,372.858,19.478,372.358,19.478z"
    />

    <path
        fill="#3462D6"
        d="M277.41,24.09L272,4.48c-0.43-1.56-1.87-2.66-3.49-2.66h-27.44c0.55,0.61,0.97,1.35,1.2,2.18l5.4,19.61
        c0.44,1.57,1.87,2.66,3.5,2.66h27.43C278.05,25.66,277.64,24.92,277.41,24.09z M266.37,14.95h-5.5v5.5c0,0.5-0.41,0.9-0.91,0.9
        s-0.9-0.4-0.9-0.9v-5.5h-5.5c-0.5,0-0.9-0.4-0.9-0.9s0.4-0.91,0.9-0.91h5.5v-5.5c0-0.5,0.4-0.9,0.9-0.9s0.91,0.4,0.91,0.9v5.5h5.5
        c0.5,0,0.9,0.41,0.9,0.91S266.87,14.95,266.37,14.95z"
    />

    <path
        fill="#E0EAEE"
        d="M267.27,14.05c0,0.5-0.4,0.9-0.9,0.9h-5.5v5.5c0,0.5-0.41,0.9-0.91,0.9s-0.9-0.4-0.9-0.9v-5.5h-5.5
        c-0.5,0-0.9-0.4-0.9-0.9s0.4-0.91,0.9-0.91h5.5v-5.5c0-0.5,0.4-0.9,0.9-0.9s0.91,0.4,0.91,0.9v5.5h5.5
        C266.87,13.14,267.27,13.55,267.27,14.05z"
    />

    <path
        fill="#2C4751"
        d="M390.04,94.62c-2.99,0-5.43,2.44-5.43,5.43v114.08c0,2.99,2.44,5.43,5.43,5.43c3,0,5.43-2.44,5.43-5.43
        V100.05C395.47,97.06,393.04,94.62,390.04,94.62z M393.66,214.13c0,1.99-1.62,3.62-3.62,3.62s-3.62-1.63-3.62-3.62V100.05
        c0-1.99,1.62-3.62,3.62-3.62s3.62,1.63,3.62,3.62V214.13z"
    />

    <path
        fill="#CDDDE4"
        d="M247.12,26.27H135.47c-1.62,0-3.05-1.09-3.49-2.66L126.57,4c-0.23-0.83-0.65-1.56-1.2-2.18h111.66
        c1.62,0,3.06,1.1,3.49,2.66l5.41,19.61C246.16,24.92,246.57,25.66,247.12,26.27z"
    />

    <path
        fill="#E0EAEE"
        d="M350.96,45.6c0,4.18-3.39,7.58-7.57,7.58H99.62c-4.18,0-7.58-3.4-7.58-7.58c0-4.17,3.4-7.57,7.58-7.57
        h243.77C347.57,38.03,350.96,41.43,350.96,45.6z"
    />

    <path
        fill="#2C4751"
        d="M343.39,36.22H99.62c-5.18,0-9.39,4.21-9.39,9.38c0,5.18,4.21,9.39,9.39,9.39h243.77
        c5.17,0,9.38-4.21,9.38-9.39C352.77,40.43,348.56,36.22,343.39,36.22z M343.39,53.18H99.62c-4.18,0-7.58-3.4-7.58-7.58
        c0-4.17,3.4-7.57,7.58-7.57h243.77c4.18,0,7.57,3.4,7.57,7.57C350.96,49.78,347.57,53.18,343.39,53.18z"
    />

    <path
        fill="#2C4751"
        d="M85.534,52.404l-4.6-4.6c0.95-1.118,1.526-2.562,1.526-4.14c0-3.532-2.873-6.406-6.405-6.406
        c-3.532,0-6.406,2.873-6.406,6.406c0,3.532,2.874,6.405,6.406,6.405c1.301,0,2.512-0.392,3.523-1.062l4.676,4.676
        c0.177,0.177,0.408,0.265,0.64,0.265c0.232,0,0.463-0.088,0.64-0.265C85.888,53.331,85.888,52.758,85.534,52.404z M71.459,43.664
        c0-2.534,2.061-4.595,4.595-4.595c2.533,0,4.595,2.061,4.595,4.595c0,2.534-2.061,4.595-4.595,4.595
        C73.521,48.259,71.459,46.198,71.459,43.664z"
    />

    <path
        fill="#2C4751"
        d="M57.599,44.964l-6.694-6.695c-0.354-0.354-0.927-0.354-1.28,0c-0.354,0.354-0.354,0.927,0,1.28l5.149,5.149
        H42.179c-0.5,0-0.905,0.405-0.905,0.905c0,0.5,0.405,0.905,0.905,0.905h12.594l-5.149,5.148c-0.354,0.354-0.354,0.927,0,1.28
        c0.177,0.177,0.408,0.265,0.64,0.265c0.232,0,0.463-0.088,0.64-0.265l6.694-6.694c0.17-0.17,0.265-0.4,0.265-0.64
        C57.864,45.364,57.768,45.134,57.599,44.964z"
    />

    <path
        fill="#2C4751"
        d="M29.844,44.699H17.25l5.149-5.149c0.354-0.354,0.354-0.927,0-1.28c-0.354-0.354-0.927-0.354-1.28,0
        l-6.694,6.695c-0.17,0.17-0.265,0.4-0.265,0.64c0,0.24,0.096,0.47,0.265,0.64l6.694,6.694c0.177,0.177,0.409,0.265,0.64,0.265
        s0.463-0.088,0.64-0.265c0.354-0.354,0.354-0.927,0-1.28L17.25,46.51h12.594c0.5,0,0.905-0.405,0.905-0.905
        C30.749,45.104,30.344,44.699,29.844,44.699z"
    />

    <path
        fill="#F2F6F8"
        d="M362.41,81.75v198.16c0,2.13-1.73,3.86-3.87,3.86H22.28c-2.13,0-3.87-1.73-3.87-3.86V81.75
        c0-2.14,1.74-3.87,3.87-3.87h336.26C360.68,77.88,362.41,79.61,362.41,81.75z"
    />

    <path
        fill="#2C4751"
        d="M358.54,76.09H22.28c-3.12,0-5.66,2.54-5.66,5.66v198.16c0,3.11,2.54,5.65,5.66,5.65h336.26
        c3.12,0,5.66-2.54,5.66-5.65V81.75C364.2,78.63,361.66,76.09,358.54,76.09z M362.41,279.91c0,2.13-1.73,3.86-3.87,3.86H22.28
        c-2.13,0-3.87-1.73-3.87-3.86V81.75c0-2.14,1.74-3.87,3.87-3.87h336.26c2.14,0,3.87,1.73,3.87,3.87V279.91z"
    />

    <path
        fill="#2C4751"
        d="M394.57,0.01H5.43C2.44,0.01,0,2.45,0,5.45v289.12c0,2.99,2.44,5.43,5.43,5.43h389.14
        c2.99,0,5.43-2.44,5.43-5.43V5.45C400,2.45,397.56,0.01,394.57,0.01z M394.57,1.82c1.99,0,3.62,1.63,3.62,3.63v20.82H282.65
        c-1.63,0-3.06-1.09-3.49-2.66L273.75,4c-0.23-0.83-0.65-1.57-1.2-2.18H394.57z M268.51,1.82c1.62,0,3.06,1.1,3.49,2.66l5.41,19.61
        c0.23,0.83,0.64,1.57,1.19,2.18h-27.43c-1.63,0-3.06-1.09-3.5-2.66L242.27,4c-0.23-0.83-0.65-1.57-1.2-2.18H268.51z M237.03,1.82
        c1.62,0,3.06,1.1,3.49,2.66l5.41,19.61c0.23,0.83,0.64,1.57,1.19,2.18H135.47c-1.62,0-3.05-1.09-3.49-2.66L126.57,4
        c-0.23-0.83-0.65-1.56-1.2-2.18H237.03z M1.81,5.45c0-2,1.63-3.63,3.62-3.63h115.91c1.62,0,3.06,1.1,3.49,2.66l5.41,19.61
        c0.23,0.83,0.64,1.57,1.2,2.18c0.31,0.35,0.66,0.65,1.04,0.9c0.87,0.58,1.9,0.91,2.99,0.91h262.72v32.59H1.81V5.45z M380.08,298.19
        H5.43c-1.99,0-3.62-1.62-3.62-3.62V62.48h378.27V298.19z M398.19,294.57c0,2-1.63,3.62-3.62,3.62h-12.68v-16.26h16.3V294.57z
        M398.19,280.12h-16.3V80.59h16.3V280.12z M398.19,78.78h-16.3v-16.3h16.3V78.78z"
    />

    <path
        fill="#9AD0C4"
        d="M377.37,46.11l0.72,4.18l-3.76-1.97c-0.13-0.07-0.27-0.11-0.42-0.11c-0.14,0-0.29,0.04-0.42,0.11l-3.76,1.97
        l0.72-4.18c0.05-0.3-0.05-0.6-0.26-0.8l-3.04-2.97l4.2-0.61c0.3-0.04,0.55-0.23,0.68-0.5l1.88-3.8l1.88,3.8
        c0.13,0.27,0.39,0.46,0.68,0.5l4.21,0.61l-3.05,2.97C377.42,45.51,377.32,45.81,377.37,46.11z"
    />

    <path
        fill="#2C4751"
        d="M383.48,41.43c-0.1-0.33-0.39-0.57-0.73-0.62l-5.55-0.8l-2.48-5.03c-0.3-0.62-1.31-0.62-1.62,0l-2.48,5.03
        l-5.55,0.8c-0.34,0.05-0.62,0.29-0.73,0.62c-0.1,0.33-0.01,0.69,0.23,0.93l4.02,3.91l-0.95,5.52c-0.06,0.34,0.08,0.69,0.36,0.89
        s0.65,0.23,0.95,0.07l4.96-2.61l4.96,2.61c0.14,0.07,0.28,0.1,0.42,0.1c0.19,0,0.38-0.06,0.54-0.17c0.28-0.2,0.41-0.55,0.36-0.89
        l-0.95-5.52l4.01-3.91C383.5,42.12,383.59,41.76,383.48,41.43z M377.63,45.31c-0.21,0.2-0.31,0.5-0.26,0.8l0.72,4.18l-3.76-1.97
        c-0.13-0.07-0.27-0.11-0.42-0.11c-0.14,0-0.29,0.04-0.42,0.11l-3.76,1.97l0.72-4.18c0.05-0.3-0.05-0.6-0.26-0.8l-3.04-2.97l4.2-0.61
        c0.3-0.04,0.55-0.23,0.68-0.5l1.88-3.8l1.88,3.8c0.13,0.27,0.39,0.46,0.68,0.5l4.21,0.61L377.63,45.31z"
    />

    <svg id="about__canvas" x="16.62" y="76.09" width="347.58" height="209.47" viewBox="0 0 347.58 209.47" >
        <rect x="0" y="0" width="100%" height="100%" fill="red" stroke="#2C4751" stroke-width="2" />
    </svg>

</svg>
